<?xml version="1.0" encoding="UTF-8"?>
<svg version="1.1" xmlns="http://www.w3.org/2000/svg" width="28" height="28">
<path d="M0 0 C1.65869015 6.07958484 -0.52634889 10.52105065 -2.625 16.25 C-2.96917969 17.26835937 -3.31335938 18.28671875 -3.66796875 19.3359375 C-4.01730469 20.30273438 -4.36664062 21.26953125 -4.7265625 22.265625 C-5.04189941 23.15024414 -5.35723633 24.03486328 -5.68212891 24.94628906 C-7 27 -7 27 -9.64208984 27.79589844 C-10.4202002 27.86325195 -11.19831055 27.93060547 -12 28 C-13.65 26.02 -15.3 24.04 -17 22 C-15.6302836 18.00499382 -13.74277578 15.19990508 -11 12 C-11.44730469 12.3609375 -11.89460937 12.721875 -12.35546875 13.09375 C-15.12253722 15.21772579 -17.23722772 16.84034999 -20.6875 17.5625 C-23.86969648 16.78845221 -25.12511087 15.66811145 -27 13 C-26.88378906 10.49536133 -26.88378906 10.49536133 -26 8 C-24.03808594 6.69799805 -24.03808594 6.69799805 -21.484375 5.76171875 C-20.56269531 5.41689453 -19.64101563 5.07207031 -18.69140625 4.71679688 C-17.72074219 4.37712891 -16.75007813 4.03746094 -15.75 3.6875 C-14.31720703 3.14899414 -14.31720703 3.14899414 -12.85546875 2.59960938 C-8.38333954 0.96687792 -4.80681679 -0.2164894 0 0 Z " fill="#A64EFF" transform="translate(27,0)"/>
</svg>
