<svg width="24" height="24" viewBox="0 0 24 24" fill="none" xmlns="http://www.w3.org/2000/svg">
<path fill-rule="evenodd" clip-rule="evenodd" d="M11.5761 1.45079C11.8104 1.21648 12.1903 1.21648 12.4246 1.45079L16.9246 5.95079C17.1589 6.1851 17.1589 6.565 16.9246 6.79932C16.6903 7.03363 16.3104 7.03363 16.0761 6.79932L12.6001 3.32339V13.1251C12.6001 13.4564 12.3315 13.7251 12.0001 13.7251C11.6688 13.7251 11.4001 13.4564 11.4001 13.1251V3.32378L7.92461 6.79932C7.69029 7.03363 7.31039 7.03363 7.07608 6.79932C6.84176 6.565 6.84176 6.18511 7.07608 5.95079L11.5761 1.45079ZM4.12515 11.3501C3.8352 11.3501 3.60015 11.5851 3.60015 11.8751V21.0001C3.60015 21.29 3.8352 21.5251 4.12515 21.5251H19.8751C20.1651 21.5251 20.4001 21.29 20.4001 21.0001V11.8751C20.4001 11.5851 20.1651 11.3501 19.8751 11.3501H17.6251C17.2938 11.3501 17.0251 11.0814 17.0251 10.7501C17.0251 10.4187 17.2938 10.1501 17.6251 10.1501H19.8751C20.8278 10.1501 21.6001 10.9224 21.6001 11.8751V21.0001C21.6001 21.9527 20.8278 22.7251 19.8751 22.7251H4.12515C3.17246 22.7251 2.40015 21.9527 2.40015 21.0001V11.8751C2.40015 10.9224 3.17246 10.1501 4.12515 10.1501H6.37515C6.70652 10.1501 6.97515 10.4187 6.97515 10.7501C6.97515 11.0814 6.70652 11.3501 6.37515 11.3501H4.12515Z" fill="#101010"/>
</svg>
